<svg width="1286" height="240" xmlns="http://www.w3.org/2000/svg" xmlns:xlink="http://www.w3.org/1999/xlink" overflow="hidden"><defs><clipPath id="clip0"><rect x="0" y="0" width="1286" height="240"/></clipPath><clipPath id="clip1"><rect x="145" y="72" width="48" height="82"/></clipPath><clipPath id="clip2"><rect x="145" y="72" width="48" height="82"/></clipPath><clipPath id="clip3"><rect x="145" y="72" width="48" height="82"/></clipPath></defs><g clip-path="url(#clip0)"><rect x="0" y="0" width="1286" height="240.062" fill="#FFFFFF"/><text font-family="OCR A,OCR A_MSFontService,sans-serif" font-weight="400" font-stretch="expanded" font-size="267" transform="matrix(1 0 0 1.00026 286.082 203)">H2X<tspan font-size="267" x="531.529" y="0">Lab</tspan></text><path d="M218.694 158.786 209 150.039" stroke="#000000" stroke-width="7.99793" stroke-miterlimit="8" fill="none" fill-rule="evenodd"/><path d="M0 12.8562C-1.63677e-15 5.75593 5.75593-1.63677e-15 12.8562-3.27354e-15 19.9565-6.54708e-15 25.7125 5.75593 25.7125 12.8562 25.7125 19.9565 19.9565 25.7125 12.8562 25.7125 5.75593 25.7125-8.18385e-15 19.9565 0 12.8562Z" stroke="#000000" stroke-width="7.99896" stroke-miterlimit="8" fill="none" fill-rule="evenodd" transform="matrix(0.707015 0.707198 0.707015 -0.707198 239.554 183.475)"/><path d="M0 0 22.0743 0.00010496" stroke="#000000" stroke-width="7.99793" stroke-miterlimit="8" fill="none" fill-rule="evenodd" transform="matrix(1 0 0 -1.00026 216 158.041)"/><path d="M235 156.04 248.276 174.319" stroke="#000000" stroke-width="7.99793" stroke-miterlimit="8" fill="none" fill-rule="evenodd"/><path d="M0 0 9.69397 8.74503" stroke="#000000" stroke-width="7.99793" stroke-miterlimit="8" fill="none" fill-rule="evenodd" transform="matrix(1 0 0 -1.00026 118 161.787)"/><path d="M88.5068 177.519C93.5268 182.54 93.5268 190.681 88.5068 195.702 83.4868 200.724 75.3477 200.724 70.3277 195.702 65.3077 190.681 65.3077 182.54 70.3277 177.519 75.3477 172.497 83.4868 172.497 88.5068 177.519Z" stroke="#000000" stroke-width="7.99896" stroke-miterlimit="8" fill="none" fill-rule="evenodd"/><path d="M121.074 161.042 99 161.042" stroke="#000000" stroke-width="7.99793" stroke-miterlimit="8" fill="none" fill-rule="evenodd"/><path d="M0 0 13.2763 18.2736" stroke="#000000" stroke-width="7.99793" stroke-miterlimit="8" fill="none" fill-rule="evenodd" transform="matrix(-1 0 0 1.00026 102.276 159.041)"/><path d="M0 0 9.69397 8.74503" stroke="#000000" stroke-width="7.99793" stroke-miterlimit="8" fill="none" fill-rule="evenodd" transform="matrix(-1 0 0 1.00026 218.694 68.0176)"/><path d="M248.581 52.8704C243.561 47.8491 243.561 39.7079 248.581 34.6866 253.601 29.6653 261.74 29.6653 266.76 34.6866 271.78 39.7079 271.78 47.8491 266.76 52.8704 261.74 57.8918 253.601 57.8918 248.581 52.8704Z" stroke="#000000" stroke-width="7.99896" stroke-miterlimit="8" fill="none" fill-rule="evenodd"/><path d="M216 69.0178 238.074 69.018" stroke="#000000" stroke-width="7.99793" stroke-miterlimit="8" fill="none" fill-rule="evenodd"/><path d="M0 0 13.2763 18.2736" stroke="#000000" stroke-width="7.99793" stroke-miterlimit="8" fill="none" fill-rule="evenodd" transform="matrix(1 0 0 -1.00026 235 71.2921)"/><g clip-path="url(#clip1)"><g clip-path="url(#clip2)"><g clip-path="url(#clip3)"><path d="M58.4348 64.3325C58.4348 68.1279 55.358 71.2045 51.5628 71.2045 47.7674 71.2045 44.6909 68.1277 44.6909 64.3325 44.6909 60.5371 47.7676 57.4605 51.5628 57.4605 55.3582 57.4605 58.4348 60.5373 58.4348 64.3325Z" transform="matrix(1 0 0 1.0027 120.521 14.4608)"/><path d="M95.5834 90.7815C95.5834 90.7815 89.9672 119.942 88.7581 121.916 87.7238 123.603 79.6542 136.844 79.6542 136.844 77.9313 139.669 79.564 141.688 81.3891 142.742 82.9429 143.639 86.2829 143.417 87.3873 141.533 87.3873 141.533 96.3405 127.6 97.3173 124.595 97.9937 122.515 99.5652 113.885 99.5652 113.885 99.5652 113.885 108.265 122.857 109.218 124.463 110.419 126.487 112.655 140.594 112.655 140.594 113.19 143.104 115.584 143.923 118.077 143.503 120.045 143.172 122.103 141.84 121.647 139.404 121.647 139.404 119.657 123.048 118.077 120.363 116.19 117.161 106.044 106.215 106.044 106.215L108.953 93.2574C108.953 93.2574 110.82 97.0423 112.126 98.6787 113.612 100.54 122.969 105.951 122.969 105.951 123.827 106.527 125.77 106.209 126.539 104.761 127.156 103.598 127.127 101.715 125.746 100.794 125.746 100.794 118.035 95.9532 116.225 94.4473 114.213 92.7758 110.143 81.6245 110.143 81.6245 108.88 79.8871 107.153 77.97 104.192 77.9223 101.209 77.8741 99.7151 79.5179 98.3745 80.4344 98.3745 80.4344 86.9443 88.784 85.8133 90.4835 84.6754 92.1932 82.6399 105.028 82.6399 105.028 82.3207 106.49 82.892 107.666 84.6232 108.069 86.7414 108.562 88.2597 107.243 88.4576 106.218 88.4576 106.218 89.7627 96.0804 90.7055 94.5825 91.8028 92.8385 95.5825 90.7838 95.5825 90.7838Z" transform="matrix(1 0 0 1.0027 66.0768 8.9861)"/></g></g></g><path d="M112 113.029C112 82.0933 137.072 57.0148 168 57.0148 198.928 57.0148 224 82.0933 224 113.029 224 143.965 198.928 169.044 168 169.044 137.072 169.044 112 143.965 112 113.029Z" stroke="#000000" stroke-width="7.99793" stroke-miterlimit="8" fill="none" fill-rule="evenodd"/><path d="M0 0 0.00010496 21.654" stroke="#000000" stroke-width="7.99793" stroke-miterlimit="8" fill="none" fill-rule="evenodd" transform="matrix(-1.83697e-16 -1.00026 -1 1.83745e-16 245.654 112.029)"/><path d="M244 112.529C244 105.624 249.82 100.026 257 100.026 264.18 100.026 270 105.624 270 112.529 270 119.435 264.18 125.032 257 125.032 249.82 125.032 244 119.435 244 112.529Z" stroke="#000000" stroke-width="7.99793" stroke-miterlimit="8" fill="none" fill-rule="evenodd"/><path d="M0 0 0.00010496 21.654" stroke="#000000" stroke-width="7.99793" stroke-miterlimit="8" fill="none" fill-rule="evenodd" transform="matrix(-1 1.22496e-16 1.22465e-16 1.00026 170 35.009)"/><path d="M171 37.0096C163.82 37.0096 158 31.1877 158 24.0062 158 16.8246 163.82 11.0028 171 11.0028 178.18 11.0028 184 16.8246 184 24.0062 184 31.1877 178.18 37.0096 171 37.0096Z" stroke="#000000" stroke-width="8" stroke-miterlimit="8" fill="none" fill-rule="evenodd"/><path d="M0 0 0.00010496 21.654" stroke="#000000" stroke-width="7.99793" stroke-miterlimit="8" fill="none" fill-rule="evenodd" transform="matrix(1 0 0 -1.00026 170 191.704)"/><path d="M169.5 190.049C176.404 190.049 182 195.647 182 202.552 182 209.458 176.404 215.056 169.5 215.056 162.597 215.056 157 209.458 157 202.552 157 195.647 162.597 190.049 169.5 190.049Z" stroke="#000000" stroke-width="8" stroke-miterlimit="8" fill="none" fill-rule="evenodd"/><path d="M91 112.029 112.654 112.029" stroke="#000000" stroke-width="8" stroke-miterlimit="8" fill="none" fill-rule="evenodd"/><path d="M0 13C-1.65508e-15 5.82032 5.82032-1.65508e-15 13-3.31016e-15 20.1798-6.62032e-15 26.0001 5.82032 26.0001 13 26.0001 20.1798 20.1798 26.0001 13 26.0001 5.82032 26.0001-8.27539e-15 20.1798 0 13Z" stroke="#000000" stroke-width="7.99793" stroke-miterlimit="8" fill="none" fill-rule="evenodd" transform="matrix(-1 0 0 1.00026 93 99.0256)"/><path d="M117 65.0168 126.694 73.7641" stroke="#000000" stroke-width="7.99793" stroke-miterlimit="8" fill="none" fill-rule="evenodd"/><path d="M0 12.8562C-1.63677e-15 5.75593 5.75593-1.63677e-15 12.8562-3.27354e-15 19.9565-6.54708e-15 25.7125 5.75593 25.7125 12.8562 25.7125 19.9565 19.9565 25.7125 12.8562 25.7125 5.75593 25.7125-8.18385e-15 19.9565 0 12.8562Z" stroke="#000000" stroke-width="7.99896" stroke-miterlimit="8" fill="none" fill-rule="evenodd" transform="matrix(-0.707015 -0.707198 -0.707015 0.707198 96.4233 40.8731)"/><path d="M0 0 22.0743 0.00010496" stroke="#000000" stroke-width="7.99793" stroke-miterlimit="8" fill="none" fill-rule="evenodd" transform="matrix(-1 0 0 1.00026 120.074 66.0171)"/><path d="M100.276 68.2912 87 50.0129" stroke="#000000" stroke-width="7.99793" stroke-miterlimit="8" fill="none" fill-rule="evenodd"/></g></svg>